<?xml version="1.0" standalone="no"?>
<!DOCTYPE svg PUBLIC "-//W3C//DTD SVG 20010904//EN"
 "http://www.w3.org/TR/2001/REC-SVG-20010904/DTD/svg10.dtd">
<svg version="1.0" xmlns="http://www.w3.org/2000/svg"
 width="860.000000pt" height="860.000000pt" viewBox="0 0 860.000000 860.000000"
 preserveAspectRatio="xMidYMid meet">
<metadata>
Created by potrace 1.14, written by Peter Selinger 2001-2017
</metadata>
<g transform="translate(0.000000,860.000000) scale(0.100000,-0.100000)"
fill="#000000" stroke="none">
<path d="M4079 7206 c-2 -2 -38 -6 -79 -10 -207 -18 -470 -77 -685 -154 -603
-216 -1120 -627 -1477 -1173 -57 -87 -96 -157 -96 -173 0 -5 -5 -12 -11 -15
-10 -7 -88 -167 -134 -277 -64 -151 -142 -417 -171 -584 -36 -204 -41 -272
-40 -555 0 -269 12 -387 61 -605 26 -119 99 -367 113 -385 4 -5 10 -22 14 -38
16 -66 182 -400 253 -510 50 -77 170 -242 194 -267 8 -8 32 -38 54 -65 66 -84
284 -295 399 -387 244 -196 521 -353 807 -459 225 -82 481 -141 739 -169 116
-12 472 -9 595 5 516 60 974 234 1385 527 52 37 106 78 120 90 14 13 52 45 85
73 122 101 302 291 438 465 154 196 321 512 422 800 51 144 111 401 130 550
19 152 23 216 23 400 0 255 -10 359 -55 580 -82 409 -248 790 -487 1125 -28
39 -55 75 -61 81 -5 6 -26 31 -46 55 -20 24 -53 64 -74 89 -139 168 -427 414
-640 547 -75 47 -348 194 -360 194 -2 0 -26 9 -52 20 -96 42 -271 101 -398
134 -170 44 -263 61 -465 84 -71 8 -493 14 -501 7z"/>
</g>
</svg>
